<svg xmlns="http://www.w3.org/2000/svg" xmlns:svgjs="http://svgjs.com/svgjs" xmlns:xlink="http://www.w3.org/1999/xlink" width="2560" height="800" preserveAspectRatio="none" version="1.1" viewBox="0 0 2560 800"><g fill="none" mask="url(&quot;#SvgjsMask1132&quot;)"><path fill="rgba(52, 76, 255, 1)" d="M2645.3333333333335 800L0 800 L0 488.49Q76.94 437.44, 128 514.38Q241.28 414.33, 341.3333333333333 527.61Q463.37 436.31, 554.6666666666666 558.35Q629.54 505.22, 682.6666666666666 580.09Q797.52 481.61, 896 596.46Q971.61 458.73, 1109.3333333333333 534.34Q1240.22 451.89, 1322.6666666666665 582.78Q1348.78 480.89, 1450.6666666666665 507.01Q1528.61 456.95, 1578.6666666666665 534.89Q1711.52 454.41, 1791.9999999999998 587.26Q1886.28 468.21, 2005.333333333333 562.49Q2117.47 461.3, 2218.6666666666665 573.44Q2336.09 477.53, 2432 594.96Q2486.93 436.55, 2645.3333333333335 491.48z"/><path fill="rgba(78, 144, 255, 1)" d="M2602.6666666666665 800L0 800 L0 571.55Q73.07 516.62, 128 589.68Q262.5 510.84, 341.3333333333333 645.34Q417.37 593.38, 469.3333333333333 669.41Q544.52 531.27, 682.6666666666666 606.46Q769.98 565.78, 810.6666666666666 653.09Q925.5 554.59, 1024 669.43Q1108.64 540.73, 1237.3333333333333 625.37Q1319.45 494.15, 1450.6666666666665 576.27Q1576.8 489.07, 1663.9999999999998 615.2Q1716.54 539.74, 1791.9999999999998 592.28Q1882.57 554.86, 1919.9999999999998 645.43Q2018.25 530.34, 2133.333333333333 628.59Q2217.66 499.59, 2346.6666666666665 583.92Q2422.18 531.43, 2474.6666666666665 606.94Q2549.57 553.84, 2602.6666666666665 628.74z"/><path fill="rgba(133, 187, 255, 1)" d="M2688 800L0 800 L0 741.99Q45.19 659.18, 128 704.37Q219 582.03, 341.3333333333333 673.03Q433.11 636.81, 469.3333333333333 728.58Q564.92 610.83, 682.6666666666666 706.42Q760.98 571.4, 896 649.72Q1038.6 578.98, 1109.3333333333333 721.58Q1145.76 630.01, 1237.3333333333333 666.44Q1292.45 593.56, 1365.3333333333333 648.67Q1458.88 614.21, 1493.3333333333333 707.76Q1563.79 650.21, 1621.3333333333333 720.67Q1650.4 621.73, 1749.3333333333333 650.8Q1835.71 609.18, 1877.3333333333333 695.56Q1926.2 616.43, 2005.3333333333333 665.3Q2133.45 580.08, 2218.6666666666665 708.2Q2266.3 627.83, 2346.6666666666665 675.46Q2486.28 601.74, 2560 741.36Q2611.62 664.98, 2688 716.6z"/><path fill="#fff" d="M2645.3333333333335 800L0 800 L0 812.12Q59.23 743.35, 128 802.58Q206.49 667.74, 341.3333333333333 746.23Q459.52 651.09, 554.6666666666666 769.28Q655.24 656.52, 768 757.1Q911.11 686.87, 981.3333333333333 829.98Q1080.44 715.75, 1194.6666666666665 814.86Q1214.75 706.94, 1322.6666666666665 727.03Q1458.49 649.52, 1535.9999999999998 785.34Q1614.97 736.31, 1663.9999999999998 815.28Q1744.95 682.9, 1877.333333333333 763.85Q1970.76 643.94, 2090.6666666666665 737.37Q2222.96 656.33, 2304 788.62Q2382.78 739.4, 2432 818.19Q2544.56 717.42, 2645.3333333333335 829.98z"/></g><defs><mask id="SvgjsMask1132"><rect width="2560" height="800" fill="#fff"/></mask></defs></svg>